<?xml version="1.0" standalone="no"?>
<!DOCTYPE svg PUBLIC "-//W3C//DTD SVG 20010904//EN"
 "http://www.w3.org/TR/2001/REC-SVG-20010904/DTD/svg10.dtd">
<svg version="1.0" xmlns="http://www.w3.org/2000/svg"
 width="2000.000000pt" height="2000.000000pt" viewBox="0 0 2000.000000 2000.000000"
 preserveAspectRatio="xMidYMid meet">
<metadata>
Created by potrace 1.16, written by Peter Selinger 2001-2019
</metadata>
<g transform="translate(0.000000,2000.000000) scale(0.100000,-0.100000)"
fill="#000000" stroke="none">
<path d="M9845 16654 c-16 -2 -104 -9 -195 -15 -331 -21 -576 -51 -810 -99
-25 -5 -70 -14 -100 -19 -30 -6 -73 -15 -95 -20 -22 -6 -71 -17 -110 -25 -38
-8 -108 -26 -155 -40 -47 -15 -101 -31 -120 -37 -19 -6 -44 -14 -55 -18 -11
-5 -38 -14 -60 -20 -22 -7 -49 -16 -60 -21 -11 -4 -69 -27 -130 -50 -60 -23
-123 -48 -140 -55 -16 -7 -59 -25 -95 -39 -125 -51 -521 -243 -655 -319 -221
-124 -558 -360 -845 -591 -117 -94 -396 -363 -505 -486 -27 -30 -78 -86 -115
-125 -79 -83 -241 -284 -332 -410 -79 -110 -268 -392 -268 -400 0 -3 -17 -32
-38 -63 -54 -81 -248 -429 -271 -487 -6 -15 -49 -111 -83 -185 -16 -36 -41
-94 -55 -130 -14 -36 -34 -84 -44 -107 -10 -24 -19 -47 -19 -53 0 -6 -4 -18
-9 -28 -24 -44 -82 -227 -136 -427 -9 -33 -21 -76 -27 -95 -5 -19 -13 -51 -18
-70 -5 -19 -14 -53 -20 -75 -6 -22 -16 -60 -20 -85 -5 -25 -14 -67 -20 -95
-41 -198 -90 -543 -124 -890 -15 -146 -24 -793 -12 -825 3 -8 11 -62 16 -120
10 -101 21 -183 40 -300 5 -30 14 -84 20 -120 5 -36 15 -90 20 -120 6 -30 14
-72 17 -93 3 -20 9 -40 14 -43 5 -3 9 -17 9 -31 0 -15 4 -40 9 -57 5 -17 14
-50 20 -73 14 -53 31 -118 42 -158 64 -221 92 -314 119 -385 17 -47 45 -120
60 -162 34 -93 38 -100 165 -363 56 -115 134 -268 174 -339 39 -70 71 -130 71
-133 0 -2 14 -24 30 -48 17 -24 30 -46 30 -50 0 -10 257 -392 331 -491 159
-213 288 -360 573 -652 275 -281 746 -653 1049 -827 34 -20 105 -63 157 -96
83 -52 349 -189 480 -247 100 -44 410 -166 480 -189 143 -46 265 -84 340 -104
41 -12 91 -25 110 -31 19 -5 54 -14 78 -19 23 -5 61 -13 85 -19 23 -5 65 -14
92 -20 28 -5 70 -14 95 -20 90 -20 326 -58 510 -80 500 -62 1097 -47 1580 40
61 11 140 25 228 40 31 5 80 15 107 20 28 6 70 15 95 20 42 8 72 16 160 41 19
6 47 13 63 16 15 3 30 9 33 14 3 5 16 9 29 9 13 0 27 5 30 10 3 6 15 10 26 10
10 0 27 4 37 9 9 5 51 19 92 31 176 51 387 135 630 252 284 136 345 169 568
303 9 6 43 27 75 48 31 20 60 37 63 37 9 0 159 110 239 176 28 22 97 73 154
113 189 134 520 441 631 586 25 32 56 65 70 73 14 8 54 55 89 104 36 48 71 88
79 88 14 0 51 38 52 53 0 17 80 125 104 140 14 9 41 45 61 79 20 34 58 85 83
114 26 28 69 95 96 148 28 54 61 105 76 116 15 10 46 58 70 106 24 47 57 100
74 118 34 36 66 86 66 103 0 25 54 130 96 185 27 37 52 88 69 140 29 90 54
142 95 203 27 40 50 99 89 235 30 100 38 122 81 210 20 41 47 120 59 175 45
202 55 242 79 315 37 115 59 196 73 270 28 152 48 287 59 405 5 50 14 151 22
225 26 269 16 817 -23 1155 -5 44 -11 107 -14 140 -3 33 -10 69 -15 80 -5 11
-11 43 -14 70 -10 93 -18 140 -27 150 -5 5 -9 24 -9 42 0 17 -4 42 -9 55 -5
13 -17 59 -27 103 -9 44 -37 148 -61 230 -24 83 -53 182 -63 220 -23 84 -67
220 -108 330 -58 155 -242 563 -295 653 -20 35 -37 65 -37 67 0 2 -22 42 -50
90 -27 48 -50 89 -50 92 0 3 -8 17 -19 31 -18 26 -32 50 -89 152 -24 44 -96
154 -137 210 -11 15 -42 60 -69 99 -26 39 -55 76 -62 82 -8 6 -14 15 -14 20 0
13 -186 256 -278 364 -85 98 -438 457 -537 546 -105 94 -307 257 -396 319
-389 273 -395 277 -664 423 -122 67 -414 207 -430 207 -5 0 -25 9 -137 59 -26
11 -51 21 -56 21 -5 0 -27 9 -50 20 -22 11 -47 20 -55 20 -7 0 -17 4 -23 8 -8
8 -51 25 -229 93 -62 23 -394 107 -535 134 -19 4 -53 11 -75 16 -22 6 -69 14
-105 19 -36 5 -90 14 -120 20 -196 36 -979 90 -1095 74z m630 -623 c277 -27
408 -43 485 -60 47 -10 128 -29 180 -40 52 -12 111 -24 130 -27 19 -3 44 -9
55 -13 45 -18 93 -31 113 -31 11 0 24 -4 27 -10 3 -5 15 -10 26 -10 10 0 27
-4 37 -9 9 -5 51 -19 92 -31 41 -12 83 -26 92 -31 10 -5 26 -9 36 -9 10 0 22
-4 28 -8 5 -4 27 -14 49 -21 22 -8 81 -33 130 -56 50 -23 124 -57 165 -75 41
-18 80 -36 85 -40 6 -4 89 -48 185 -97 473 -242 801 -486 1241 -923 174 -173
287 -302 469 -535 39 -49 77 -98 85 -107 35 -42 160 -237 240 -373 128 -217
313 -587 380 -760 31 -83 66 -169 76 -192 11 -24 19 -49 19 -56 0 -7 4 -17 8
-22 4 -6 14 -28 21 -50 7 -22 16 -49 20 -60 10 -23 42 -129 61 -195 6 -25 16
-53 21 -62 5 -10 9 -29 9 -42 0 -14 4 -27 9 -30 5 -3 11 -20 14 -38 3 -18 11
-53 17 -78 18 -74 31 -132 40 -190 5 -30 14 -80 19 -110 58 -343 83 -595 82
-850 0 -245 -17 -551 -37 -710 -9 -63 -20 -146 -25 -185 -4 -38 -13 -95 -19
-125 -6 -30 -15 -82 -20 -115 -5 -33 -14 -80 -20 -105 -6 -25 -15 -63 -20 -85
-5 -22 -13 -57 -19 -77 -27 -92 -33 -115 -42 -153 -6 -22 -14 -56 -19 -75 -5
-19 -12 -47 -16 -63 -3 -15 -10 -30 -15 -33 -5 -3 -9 -15 -9 -28 0 -12 -4 -26
-9 -32 -5 -5 -50 -115 -101 -244 -81 -208 -192 -447 -240 -520 -10 -14 -36
-61 -60 -105 -110 -203 -142 -253 -395 -614 -168 -240 -640 -731 -920 -958
-59 -48 -258 -193 -264 -193 -3 0 -20 -14 -38 -30 -18 -17 -36 -30 -41 -30 -5
0 -17 -9 -27 -20 -10 -11 -22 -20 -28 -20 -5 0 -21 -8 -35 -19 -29 -20 -31
-21 -222 -130 -145 -83 -423 -221 -445 -221 -5 0 -41 -16 -145 -62 -25 -11
-55 -24 -67 -29 -13 -5 -34 -13 -48 -19 -14 -5 -36 -14 -50 -20 -14 -5 -35
-14 -47 -20 -44 -19 -323 -111 -363 -120 -22 -5 -58 -14 -80 -20 -22 -6 -58
-15 -80 -20 -22 -5 -60 -14 -85 -20 -25 -5 -72 -15 -105 -21 -33 -6 -80 -15
-105 -19 -25 -5 -61 -12 -80 -15 -19 -3 -60 -10 -90 -16 -30 -5 -68 -11 -85
-13 -16 -2 -37 -6 -45 -9 -27 -10 -330 -31 -625 -43 -174 -7 -551 20 -780 55
-33 5 -87 13 -120 16 -33 4 -69 10 -80 15 -11 5 -37 11 -57 14 -21 3 -55 9
-75 12 -21 3 -47 9 -58 14 -11 4 -47 14 -80 20 -223 47 -542 141 -663 196 -29
13 -55 24 -57 24 -6 0 -92 37 -117 51 -10 5 -22 9 -28 9 -6 0 -32 9 -58 21
-26 12 -56 25 -67 29 -59 23 -332 160 -405 203 -219 128 -276 162 -288 174 -7
7 -17 13 -22 13 -5 0 -15 6 -22 13 -7 7 -35 28 -63 47 -63 43 -163 119 -235
179 -30 25 -59 49 -65 53 -103 75 -617 571 -687 663 -12 17 -56 71 -98 120
-134 159 -187 229 -273 361 -47 71 -96 145 -109 164 -37 53 -118 179 -118 184
0 2 -21 41 -46 87 -97 174 -123 226 -159 309 -21 47 -46 105 -57 130 -47 105
-58 132 -88 215 -12 33 -26 69 -30 80 -5 11 -19 52 -31 90 -12 39 -25 79 -29
90 -4 11 -13 40 -20 65 -7 25 -21 70 -31 100 -20 63 -44 170 -65 285 -13 75
-20 107 -45 210 -79 328 -99 1150 -40 1665 21 181 35 257 86 475 8 33 24 100
35 149 12 49 28 110 36 135 14 45 18 59 44 151 18 63 69 220 81 248 5 12 13
32 18 45 4 12 13 33 19 47 5 14 20 52 32 85 40 105 282 587 329 654 10 14 49
78 87 141 126 214 240 381 384 564 36 45 76 98 90 117 93 126 336 377 520 537
80 70 147 129 150 132 3 3 25 21 50 40 25 19 47 37 50 40 7 8 90 74 146 116
49 38 371 244 381 244 3 0 17 8 31 19 55 39 466 251 486 251 6 0 87 36 196 87
41 19 86 40 100 45 14 6 33 14 42 19 10 5 27 9 37 9 11 0 23 5 26 10 3 6 17
10 30 10 13 0 27 5 30 10 3 6 15 10 26 10 10 0 27 4 37 9 31 15 88 31 115 31
14 0 29 5 32 10 3 6 17 10 30 10 13 0 26 4 29 9 3 5 18 11 33 14 16 4 51 11
78 17 28 6 70 15 95 20 25 5 68 13 95 19 208 42 436 74 723 101 110 10 764 4
897 -9z"/>
<path d="M11669 13455 c-4 -3 -40 -8 -80 -11 -132 -8 -341 -46 -414 -74 -11
-4 -40 -14 -65 -21 -25 -7 -49 -16 -54 -21 -6 -4 -18 -8 -28 -8 -10 0 -26 -4
-36 -9 -9 -4 -61 -30 -115 -56 -241 -118 -450 -307 -589 -531 -59 -95 -116
-204 -137 -264 -7 -19 -16 -44 -21 -55 -17 -45 -30 -92 -30 -108 0 -10 -4 -25
-9 -35 -34 -64 -48 -459 -22 -609 22 -125 33 -178 41 -198 4 -11 13 -38 19
-60 29 -93 121 -262 189 -345 215 -263 374 -375 747 -528 152 -63 205 -82 335
-122 58 -18 113 -36 122 -41 10 -5 26 -9 36 -9 10 0 22 -4 27 -8 6 -5 30 -14
55 -21 25 -7 53 -17 62 -22 10 -5 29 -9 42 -9 14 0 28 -4 31 -10 3 -5 19 -10
35 -10 16 0 32 -4 35 -10 3 -5 19 -10 35 -10 16 0 32 -4 35 -10 3 -5 17 -10
30 -10 13 0 27 -4 30 -10 3 -5 15 -10 26 -10 10 0 27 -4 37 -10 9 -5 69 -28
132 -51 163 -59 285 -120 358 -179 163 -133 249 -358 208 -548 -22 -106 -93
-236 -162 -300 -53 -49 -176 -119 -277 -157 -117 -44 -331 -63 -517 -45 -316
29 -497 79 -715 200 -33 18 -73 40 -90 49 -16 9 -38 24 -49 34 -11 9 -25 17
-32 17 -7 0 -14 3 -16 8 -2 4 -32 31 -68 61 -36 30 -73 63 -83 75 -102 115
-196 210 -218 222 -31 15 -34 13 -136 -126 -26 -36 -52 -70 -58 -77 -5 -6 -29
-35 -52 -65 -24 -29 -73 -91 -111 -138 -37 -47 -82 -105 -100 -130 -17 -25
-54 -74 -82 -110 -54 -71 -59 -86 -32 -116 9 -10 30 -35 46 -54 65 -79 265
-255 374 -327 178 -119 293 -178 452 -233 19 -7 44 -16 55 -20 30 -12 74 -26
125 -40 25 -7 54 -16 65 -20 11 -5 34 -11 50 -15 17 -3 48 -11 70 -16 22 -6
65 -15 95 -20 30 -5 82 -14 115 -20 207 -37 907 -29 960 11 6 4 28 10 50 14
22 3 59 9 83 12 23 4 45 11 48 15 3 5 14 9 25 9 10 0 27 4 37 9 9 5 35 14 57
20 22 7 50 17 63 22 27 11 64 26 95 38 52 20 125 57 164 83 23 15 46 28 52 28
6 0 11 5 11 10 0 6 4 10 10 10 31 0 271 210 366 320 89 104 221 339 253 450 7
25 17 54 21 65 5 11 11 34 15 50 3 17 10 48 15 70 30 124 34 163 34 310 -1 88
-6 192 -12 230 -7 39 -14 89 -18 113 -3 23 -10 45 -15 48 -5 3 -9 17 -9 32 0
32 -37 136 -75 212 -51 102 -158 245 -259 346 -91 90 -247 217 -286 232 -8 3
-17 9 -20 12 -5 7 -178 96 -240 123 -39 17 -99 40 -315 122 -225 85 -244 92
-325 115 -41 12 -84 26 -95 30 -11 5 -38 14 -60 21 -22 6 -48 15 -57 20 -10 5
-27 9 -37 9 -11 0 -23 5 -26 10 -3 6 -17 10 -30 10 -13 0 -27 5 -30 10 -3 6
-15 10 -26 10 -10 0 -27 4 -37 9 -9 5 -48 19 -87 31 -38 12 -89 30 -112 41
-24 10 -47 19 -53 19 -23 0 -161 75 -226 123 -155 115 -214 206 -241 367 -15
85 -14 100 1 169 23 110 68 190 156 282 42 43 82 79 88 79 6 0 17 6 24 13 21
19 56 37 73 37 8 0 24 5 35 10 11 6 29 15 40 20 11 6 31 10 44 10 14 0 28 5
31 10 3 6 28 10 55 10 27 0 52 5 55 10 8 13 240 13 324 -1 65 -10 93 -16 179
-38 110 -28 128 -34 144 -42 10 -5 25 -9 33 -9 8 0 23 -4 33 -9 9 -5 44 -21
77 -36 70 -32 135 -64 191 -95 40 -23 225 -148 234 -159 3 -3 22 -19 42 -34
20 -15 59 -47 85 -72 29 -27 58 -45 73 -45 28 0 76 47 169 171 66 86 155 196
226 278 22 25 58 71 80 101 21 30 42 57 46 60 3 3 9 15 13 28 4 12 22 36 39
52 l31 29 -54 51 c-30 28 -82 70 -114 92 -33 23 -66 47 -75 54 -180 146 -437
294 -634 364 -26 9 -50 20 -54 23 -3 4 -17 7 -29 7 -13 0 -26 5 -29 10 -3 6
-17 10 -30 10 -13 0 -27 5 -30 10 -3 6 -19 10 -35 10 -16 0 -31 4 -34 9 -3 5
-20 12 -38 15 -18 4 -53 11 -78 16 -97 20 -169 31 -260 41 -116 12 -503 23
-511 14z"/>
<path d="M8425 13423 l-309 -3 -29 -28 c-58 -54 -58 -58 -57 -365 2 -806 10
-2080 17 -2517 12 -781 11 -814 -60 -1045 -38 -123 -74 -183 -172 -281 -108
-108 -167 -140 -305 -170 -78 -17 -204 -18 -302 -3 -141 22 -333 110 -433 199
-16 15 -61 48 -99 74 -79 55 -74 56 -147 -49 -27 -38 -85 -117 -129 -175 -45
-58 -95 -127 -112 -155 -17 -27 -46 -73 -65 -102 -18 -28 -33 -56 -33 -61 0
-5 -22 -33 -50 -63 -27 -30 -50 -56 -50 -58 0 -2 9 -18 20 -37 29 -45 138
-139 245 -209 88 -57 346 -195 365 -195 6 0 29 -9 53 -19 64 -29 87 -36 192
-62 39 -10 59 -14 195 -41 77 -15 382 -15 485 1 107 16 175 28 225 41 25 6 57
14 73 17 15 3 30 9 33 14 3 5 14 9 25 9 10 0 27 4 37 9 9 5 31 14 47 21 17 7
38 16 47 21 10 5 25 9 33 9 8 0 15 4 15 9 0 5 8 11 18 14 40 14 135 77 242
162 148 118 316 323 407 495 105 200 143 336 178 630 21 175 21 235 7 1150 -6
448 -13 1137 -13 1530 -2 984 -3 1091 -16 1120 -14 31 -47 62 -97 90 -48 26
-74 28 -481 23z"/>
</g>
</svg>
